<?xml version="1.0" standalone="no"?><!DOCTYPE svg PUBLIC "-//W3C//DTD SVG 1.1//EN" "http://www.w3.org/Graphics/SVG/1.1/DTD/svg11.dtd"><svg t="1674680508642" class="icon" viewBox="0 0 1024 1024" version="1.1" xmlns="http://www.w3.org/2000/svg" p-id="5415" xmlns:xlink="http://www.w3.org/1999/xlink" width="200" height="200"><path d="M512 512m-448 0a448 448 0 1 0 896 0 448 448 0 1 0-896 0Z" fill="#A0B2C5" p-id="5416"></path><path d="M256 256m32 0l448 0q32 0 32 32l0 448q0 32-32 32l-448 0q-32 0-32-32l0-448q0-32 32-32Z" fill="#F4F9FF" p-id="5417"></path><path d="M448 614m12 0l88 0q12 0 12 12l0 88q0 12-12 12l-88 0q-12 0-12-12l0-88q0-12 12-12Z" fill="#3F4B58" p-id="5418"></path><path d="M448 470m12 0l88 0q12 0 12 12l0 88q0 12-12 12l-88 0q-12 0-12-12l0-88q0-12 12-12Z" fill="#3F4B58" p-id="5419"></path><path d="M592 470m12 0l104 0q12 0 12 12l0 232q0 12-12 12l-104 0q-12 0-12-12l0-232q0-12 12-12Z" fill="#3F4B58" p-id="5420"></path><path d="M304 614m12 0l88 0q12 0 12 12l0 88q0 12-12 12l-88 0q-12 0-12-12l0-88q0-12 12-12Z" fill="#3F4B58" p-id="5421"></path><path d="M304 470m12 0l88 0q12 0 12 12l0 88q0 12-12 12l-88 0q-12 0-12-12l0-88q0-12 12-12Z" fill="#3F4B58" p-id="5422"></path><path d="M304 298m16 0l384 0q16 0 16 16l0 96q0 16-16 16l-384 0q-16 0-16-16l0-96q0-16 16-16Z" fill="#1D496A" p-id="5423"></path><path d="M304 304m16 0l384 0q16 0 16 16l0 96q0 16-16 16l-384 0q-16 0-16-16l0-96q0-16 16-16Z" fill="#3976A4" p-id="5424"></path><path d="M448 608m12 0l88 0q12 0 12 12l0 88q0 12-12 12l-88 0q-12 0-12-12l0-88q0-12 12-12Z" fill="#617283" p-id="5425"></path><path d="M474 658h60v12h-60z" fill="#F3F5F6" p-id="5426"></path><path d="M504 688m-8 0a8 8 0 1 0 16 0 8 8 0 1 0-16 0Z" fill="#F3F5F6" p-id="5427"></path><path d="M504 640m-8 0a8 8 0 1 0 16 0 8 8 0 1 0-16 0Z" fill="#F3F5F6" p-id="5428"></path><path d="M448 464m12 0l88 0q12 0 12 12l0 88q0 12-12 12l-88 0q-12 0-12-12l0-88q0-12 12-12Z" fill="#617283" p-id="5429"></path><path d="M474 514h60v12h-60z" fill="#F3F5F6" p-id="5430"></path><path d="M592 464m12 0l104 0q12 0 12 12l0 232q0 12-12 12l-104 0q-12 0-12-12l0-232q0-12 12-12Z" fill="#617283" p-id="5431"></path><path d="M626 604h60v12h-60zM626 568h60v12h-60z" fill="#F3F5F6" p-id="5432"></path><path d="M304 608m12 0l88 0q12 0 12 12l0 88q0 12-12 12l-88 0q-12 0-12-12l0-88q0-12 12-12Z" fill="#617283" p-id="5433"></path><path d="M343.03 638.544l42.426 42.427-8.485 8.485-42.427-42.427z" fill="#F3F5F6" p-id="5434"></path><path d="M376.97 638.544l8.486 8.485-42.427 42.427-8.485-8.485z" fill="#F3F5F6" p-id="5435"></path><path d="M304 464m12 0l88 0q12 0 12 12l0 88q0 12-12 12l-88 0q-12 0-12-12l0-88q0-12 12-12Z" fill="#617283" p-id="5436"></path><path d="M330 514h60v12h-60z" fill="#F3F5F6" p-id="5437"></path><path d="M354 490h12v60h-12z" fill="#F3F5F6" p-id="5438"></path></svg>